<mxfile host="65bd71144e">
    <diagram id="HpUwxvtieIS37iP2yzlN" name="Página-1">
        <mxGraphModel dx="828" dy="474" grid="1" gridSize="10" guides="1" tooltips="1" connect="1" arrows="1" fold="1" page="1" pageScale="1" pageWidth="827" pageHeight="1169" math="0" shadow="0">
            <root>
                <mxCell id="0"/>
                <mxCell id="1" parent="0"/>
                <mxCell id="41" value="" style="group" parent="1" vertex="1" connectable="0">
                    <mxGeometry x="40" y="40" width="699.04" height="320" as="geometry"/>
                </mxCell>
                <mxCell id="90" value="" style="group" vertex="1" connectable="0" parent="41">
                    <mxGeometry x="160.00428571428571" y="80" width="539.0357142857142" height="180" as="geometry"/>
                </mxCell>
                <mxCell id="17" value="" style="group" parent="90" vertex="1" connectable="0">
                    <mxGeometry y="10" width="189.66071428571428" height="170" as="geometry"/>
                </mxCell>
                <mxCell id="2" value="" style="whiteSpace=wrap;html=1;" parent="17" vertex="1">
                    <mxGeometry y="25.78" width="189.66071428571428" height="100" as="geometry"/>
                </mxCell>
                <mxCell id="4" value="" style="endArrow=none;html=1;" parent="17" edge="1">
                    <mxGeometry width="50" height="50" relative="1" as="geometry">
                        <mxPoint y="45.78" as="sourcePoint"/>
                        <mxPoint x="189.66071428571428" y="47.02999999999997" as="targetPoint"/>
                    </mxGeometry>
                </mxCell>
                <mxCell id="5" value="Pedido" style="text;strokeColor=none;fillColor=none;html=1;fontSize=24;fontStyle=1;verticalAlign=middle;align=center;" parent="17" vertex="1">
                    <mxGeometry x="44.919642857142854" y="25.78" width="99.82142857142857" height="21.24999999999997" as="geometry"/>
                </mxCell>
                <mxCell id="6" value="- Nome: String" style="text;strokeColor=none;fillColor=none;html=1;fontSize=10;fontStyle=1;verticalAlign=middle;align=left;" parent="17" vertex="1">
                    <mxGeometry y="43.9150333333333" width="79.85714285714286" height="21.24999999999997" as="geometry"/>
                </mxCell>
                <mxCell id="14" value="-Mesa: Number" style="text;strokeColor=none;fillColor=none;html=1;fontSize=10;fontStyle=1;verticalAlign=middle;align=left;" parent="17" vertex="1">
                    <mxGeometry y="57.65386666666661" width="79.85714285714286" height="21.24999999999997" as="geometry"/>
                </mxCell>
                <mxCell id="42" value="" style="endArrow=none;html=1;fontSize=10;entryX=1;entryY=0.75;entryDx=0;entryDy=0;startSize=0;endSize=0;" parent="17" edge="1" target="2">
                    <mxGeometry width="50" height="50" relative="1" as="geometry">
                        <mxPoint y="100.78" as="sourcePoint"/>
                        <mxPoint x="189.66071428571428" y="89.53" as="targetPoint"/>
                    </mxGeometry>
                </mxCell>
                <mxCell id="47" value="+gerateID()" style="text;strokeColor=none;fillColor=none;html=1;fontSize=10;fontStyle=1;verticalAlign=middle;align=left;" parent="17" vertex="1">
                    <mxGeometry y="97.5038499999999" width="79.85714285714286" height="21.24999999999997" as="geometry"/>
                </mxCell>
                <mxCell id="86" value="-Descrição: String" style="text;strokeColor=none;fillColor=none;html=1;fontSize=10;fontStyle=1;verticalAlign=middle;align=left;" parent="17" vertex="1">
                    <mxGeometry y="76.25574166666661" width="79.85714285714286" height="21.24999999999997" as="geometry"/>
                </mxCell>
                <mxCell id="34" value="" style="endArrow=none;html=1;fontSize=10;exitX=1;exitY=0.5;exitDx=0;exitDy=0;entryX=0;entryY=0.5;entryDx=0;entryDy=0;" parent="90" source="2" target="33" edge="1">
                    <mxGeometry width="50" height="50" relative="1" as="geometry">
                        <mxPoint x="169.69642857142858" y="85" as="sourcePoint"/>
                        <mxPoint x="349.375" y="85.78125" as="targetPoint"/>
                    </mxGeometry>
                </mxCell>
                <mxCell id="33" value="" style="rhombus;whiteSpace=wrap;html=1;fontSize=10;" parent="90" vertex="1">
                    <mxGeometry x="329.4107142857142" y="75.78" width="19.964285714285715" height="20" as="geometry"/>
                </mxCell>
                <mxCell id="35" value="(0, *)" style="text;strokeColor=none;fillColor=none;html=1;fontSize=24;fontStyle=1;verticalAlign=middle;align=center;" parent="90" vertex="1">
                    <mxGeometry x="189.66071428571425" y="45.78" width="49.910714285714285" height="30" as="geometry"/>
                </mxCell>
                <mxCell id="36" value="(1)" style="text;strokeColor=none;fillColor=none;html=1;fontSize=24;fontStyle=1;verticalAlign=middle;align=center;" parent="90" vertex="1">
                    <mxGeometry x="299.46428571428567" y="45.78" width="49.910714285714285" height="30" as="geometry"/>
                </mxCell>
                <mxCell id="56" value="" style="group" parent="90" vertex="1" connectable="0">
                    <mxGeometry x="349.375" width="189.66071428571428" height="130" as="geometry"/>
                </mxCell>
                <mxCell id="16" value="" style="endArrow=none;html=1;fontSize=10;exitX=1;exitY=0.5;exitDx=0;exitDy=0;entryX=0;entryY=0.5;entryDx=0;entryDy=0;startArrow=none;" parent="56" source="33" edge="1">
                    <mxGeometry width="50" height="50" relative="1" as="geometry">
                        <mxPoint x="-69.875" y="111.42857142857142" as="sourcePoint"/>
                        <mxPoint y="71.15178571428571" as="targetPoint"/>
                    </mxGeometry>
                </mxCell>
                <mxCell id="18" value="" style="group" parent="56" vertex="1" connectable="0">
                    <mxGeometry width="189.66071428571428" height="130" as="geometry"/>
                </mxCell>
                <mxCell id="19" value="" style="whiteSpace=wrap;html=1;" parent="18" vertex="1">
                    <mxGeometry width="189.66071428571428" height="130.00000000000003" as="geometry"/>
                </mxCell>
                <mxCell id="20" value="" style="endArrow=none;html=1;exitX=-0.002;exitY=0.137;exitDx=0;exitDy=0;exitPerimeter=0;" parent="18" source="19" edge="1">
                    <mxGeometry width="50" height="50" relative="1" as="geometry">
                        <mxPoint x="169.69642857142858" y="20.3125" as="sourcePoint"/>
                        <mxPoint x="189.66071428571428" y="18" as="targetPoint"/>
                    </mxGeometry>
                </mxCell>
                <mxCell id="21" value="&lt;font style=&quot;font-size: 22px;&quot;&gt;PedidosLista&lt;/font&gt;" style="text;strokeColor=none;fillColor=none;html=1;fontSize=24;fontStyle=1;verticalAlign=middle;align=center;" parent="18" vertex="1">
                    <mxGeometry x="44.919642857142854" width="99.82142857142857" height="16.250000000000004" as="geometry"/>
                </mxCell>
                <mxCell id="39" value="+deletBtn()" style="text;strokeColor=none;fillColor=none;html=1;fontSize=10;fontStyle=1;verticalAlign=middle;align=left;" parent="18" vertex="1">
                    <mxGeometry y="75.68228571428571" width="79.85714285714286" height="16.250000000000004" as="geometry"/>
                </mxCell>
                <mxCell id="40" value="+editBtn()" style="text;strokeColor=none;fillColor=none;html=1;fontSize=10;fontStyle=1;verticalAlign=middle;align=left;" parent="18" vertex="1">
                    <mxGeometry y="91.93599999999999" width="79.85714285714286" height="16.250000000000004" as="geometry"/>
                </mxCell>
                <mxCell id="49" value="- Cliente: String" style="text;strokeColor=none;fillColor=none;html=1;fontSize=10;fontStyle=1;verticalAlign=middle;align=left;" parent="18" vertex="1">
                    <mxGeometry x="3.992857142857143" y="16.25242666666664" width="79.85714285714286" height="14.857142857142836" as="geometry"/>
                </mxCell>
                <mxCell id="50" value="- Mesa: Number" style="text;strokeColor=none;fillColor=none;html=1;fontSize=10;fontStyle=1;verticalAlign=middle;align=left;" parent="18" vertex="1">
                    <mxGeometry y="29.71349333333329" width="79.85714285714286" height="14.857142857142836" as="geometry"/>
                </mxCell>
                <mxCell id="52" value="- Id: Number" style="text;strokeColor=none;fillColor=none;html=1;fontSize=10;fontStyle=1;verticalAlign=middle;align=left;" parent="18" vertex="1">
                    <mxGeometry y="44.57206476190471" width="79.85714285714286" height="14.857142857142836" as="geometry"/>
                </mxCell>
                <mxCell id="37" value="" style="endArrow=none;html=1;fontSize=10;exitX=0;exitY=0.5;exitDx=0;exitDy=0;entryX=1;entryY=0.5;entryDx=0;entryDy=0;entryPerimeter=0;" parent="18" source="19" target="19" edge="1">
                    <mxGeometry width="50" height="50" relative="1" as="geometry">
                        <mxPoint x="29.946428571428573" y="111.42857142857142" as="sourcePoint"/>
                        <mxPoint x="79.85714285714286" y="74.28571428571428" as="targetPoint"/>
                    </mxGeometry>
                </mxCell>
            </root>
        </mxGraphModel>
    </diagram>
</mxfile>